<svg version="1.1" id="Layer_1" xmlns="http://www.w3.org/2000/svg" xmlns:xlink="http://www.w3.org/1999/xlink" x="0px" y="0px"
	 width="100%" viewBox="0 0 224 224" enable-background="new 0 0 224 224" xml:space="preserve">
<path fill="#000000" opacity="1.000000" stroke="none" 
	d="
M117.812813,129.158646 
	C116.379944,120.048622 111.032700,112.581390 109.747223,103.786926 
	C108.458145,94.967758 111.277008,91.722305 119.665962,94.215538 
	C125.041428,95.813133 129.909180,99.119026 135.183197,101.748192 
	C133.287888,103.894020 131.435791,101.429054 130.056671,102.875443 
	C130.008545,103.184364 129.815689,103.652740 129.948425,103.779121 
	C131.587830,105.339973 134.294632,111.543533 134.423187,114.159721 
	C134.538269,116.501144 136.089813,118.076233 137.430847,119.762337 
	C138.486343,121.089447 140.255234,122.002602 140.279007,124.104828 
	C137.467239,124.636032 137.244583,120.656822 134.264023,121.531105 
	C134.031540,125.061729 137.345001,126.577759 138.850204,129.054993 
	C139.919876,130.815445 141.652084,132.368927 138.910889,133.943710 
	C136.835922,135.135757 134.751160,136.975296 132.368042,134.059036 
	C129.606277,130.679443 129.272629,128.803360 130.902023,119.706467 
	C125.641296,123.521271 124.446083,123.313652 122.333199,116.531265 
	C120.712784,111.329750 116.758011,106.996910 116.638390,101.038109 
	C120.287155,99.477928 123.182037,103.080093 126.727005,101.999680 
	C122.191032,99.622421 118.091187,96.227646 112.355431,96.249748 
	C111.495682,99.410896 113.171822,101.520889 114.029968,103.715050 
	C116.920158,111.104820 120.018181,118.413200 123.021873,125.758781 
	C123.657181,127.312431 124.473999,129.081436 122.847862,130.349854 
	C121.139992,131.682022 119.401314,131.076416 117.812813,129.158646 
z"/>
<path fill="#000000" opacity="1.000000" stroke="none" 
	d="
M88.627861,168.841553 
	C106.308044,167.002762 133.392303,168.887100 136.910416,172.188354 
	C136.162842,174.330536 134.242386,173.797867 132.715424,173.892380 
	C114.954369,174.991699 97.125374,174.368759 79.380325,176.058502 
	C75.426270,176.434998 71.380096,176.212402 67.471870,175.170792 
	C65.968903,174.770187 63.665234,174.996902 63.923100,172.611435 
	C64.131943,170.679428 66.080864,170.335403 67.754036,170.001160 
	C72.189125,169.115173 76.682823,169.065613 81.177864,169.002777 
	C83.508369,168.970200 85.838478,168.908142 88.627861,168.841553 
z"/>
<path fill="#000000" opacity="1.000000" stroke="none" 
	d="
M166.779358,137.524750 
	C171.016754,135.783630 170.832947,130.891296 173.475983,127.053024 
	C176.446869,130.825958 177.037888,134.767456 177.437225,138.481232 
	C177.697586,140.902405 175.297989,141.017029 173.376617,140.318253 
	C171.208817,139.529831 169.094269,138.594971 166.779358,137.524750 
z"/>
<path fill="#000000" opacity="1.000000" stroke="none" 
	d="
M149.782990,126.508545 
	C151.893280,133.097397 150.678528,135.548630 146.044403,134.777222 
	C143.937897,134.426575 143.655426,133.096115 143.297638,131.315033 
	C142.595947,127.822006 144.899597,126.058540 147.077545,124.406044 
	C148.903564,123.020576 149.051666,125.189095 149.782990,126.508545 
z"/>
<path fill="#000000" opacity="1.000000" stroke="none" 
	d="
M81.078186,73.237968 
	C87.292114,72.255066 93.094887,72.271942 98.688179,74.935158 
	C92.762337,77.818550 86.724808,76.436157 80.739105,75.277946 
	C79.823883,75.100861 79.930099,74.004875 81.078186,73.237968 
z"/>
<path fill="#000000" opacity="1.000000" stroke="none" 
	d="
M61.683399,137.985016 
	C58.728966,139.127472 55.841015,140.205460 51.907524,138.251419 
	C55.611874,135.204208 58.579102,135.227936 61.683399,137.985016 
z"/>
<path fill="#000000" opacity="1.000000" stroke="none" 
	d="
M166.781281,131.839676 
	C165.194992,135.417831 163.159500,133.541092 160.062149,133.023804 
	C162.767654,130.705200 164.546326,130.094666 166.781281,131.839676 
z"/>
</svg>