<?xml version="1.0" encoding="iso-8859-1"?>
<!-- Uploaded to: SVG Repo, www.svgrepo.com, Generator: SVG Repo Mixer Tools -->
<svg height="800px" width="800px" version="1.1" id="Capa_1" xmlns="http://www.w3.org/2000/svg" xmlns:xlink="http://www.w3.org/1999/xlink" 
	 viewBox="0 0 25.037 25.037" xml:space="preserve">
<g>
	<g>
		<path style="fill:#030104;" d="M1.419,17.958h22.283c0.509,0,0.921-0.412,0.921-0.921V3.43c0-0.509-0.412-0.921-0.921-0.921H1.419
			c-0.508,0-0.921,0.412-0.921,0.921v13.606C0.498,17.545,0.911,17.958,1.419,17.958z M2.34,4.35h20.441v11.767H2.34V4.35z"/>
		<path style="fill:#030104;" d="M24.972,20.542l-0.424-1.796c-0.065-0.277-0.313-0.474-0.597-0.474H1.077
			c-0.286,0-0.534,0.198-0.599,0.477l-0.411,1.782C0.024,20.614,0,20.71,0,20.81v1.105c0,0.338,0.275,0.614,0.613,0.614h23.81
			c0.34,0,0.614-0.276,0.614-0.614v-1.104C25.038,20.715,25.013,20.624,24.972,20.542z M9.422,22.131l0.266-1.261h5.115l0.551,1.261
			H9.422z M1.034,20.402l0.369-1.407h22.231l0.472,1.407H1.034z"/>
		<path style="fill:#030104;" d="M18.057,12.017l1.362-0.484c0.02-0.022,0.027-0.052,0.016-0.083
			c-0.004-0.01-0.009-0.02-0.016-0.027c-0.013-0.013-0.032-0.02-0.048-0.022l-3.533-0.973c-0.024-0.001-0.044,0.006-0.061,0.022
			c-0.015,0.016-0.023,0.04-0.023,0.062l1.194,3.75c0.004,0.03,0.023,0.055,0.051,0.064c0.028,0.012,0.057,0.004,0.08-0.018
			l0.265-1.579l1.861,1.86c0.028,0.03,0.076,0.03,0.109,0l0.604-0.603c0.028-0.03,0.028-0.08,0-0.109L18.057,12.017z"/>
	</g>
</g>
</svg>